<svg width="2578" height="1036" viewBox="0 0 2578 1036" fill="none" xmlns="http://www.w3.org/2000/svg">
<path d="M1057 831H1V1H2577L2565 801H1791V719L1717 673L1599 639H1495H1377L1263 653L1177 673L1145 705V801H1105L1057 831Z" fill="black"/>
<path d="M1077 929L1105 1001L1177 1035L1165 1001V911L1121 859L1087 873L1077 929Z" fill="black"/>
<path d="M1057 831H1V1H2577L2565 801H1791V719L1717 673L1599 639H1495H1377L1263 653L1177 673L1145 705V801H1105L1057 831Z" stroke="black"/>
<path d="M1077 929L1105 1001L1177 1035L1165 1001V911L1121 859L1087 873L1077 929Z" stroke="black"/>
</svg>
