<?xml version="1.0" standalone="no"?>
<!DOCTYPE svg PUBLIC "-//W3C//DTD SVG 20010904//EN"
 "http://www.w3.org/TR/2001/REC-SVG-20010904/DTD/svg10.dtd">
<svg version="1.0" xmlns="http://www.w3.org/2000/svg"
 width="1280.000000pt" height="1009.000000pt" viewBox="0 0 1280.000000 1009.000000"
 preserveAspectRatio="xMidYMid meet">
<metadata>
Created by potrace 1.15, written by Peter Selinger 2001-2017
</metadata>
<g transform="translate(0.000000,1009.000000) scale(0.100000,-0.100000)"
fill="#000000" stroke="none">
<path d="M7870 9760 c30 -68 27 -74 -27 -47 -60 30 -141 52 -151 42 -4 -4 -2
-9 3 -12 6 -2 33 -14 60 -28 35 -17 41 -22 20 -18 -47 11 -78 9 -82 -4 -2 -6
11 -29 30 -50 19 -21 37 -47 41 -59 3 -11 14 -29 24 -40 10 -10 24 -35 31 -54
7 -19 37 -89 66 -155 73 -163 125 -309 125 -349 0 -39 -27 -121 -63 -191 -35
-69 -205 -231 -355 -339 -28 -21 -59 -39 -67 -40 -8 -1 -18 -5 -21 -9 -4 -4
-12 -7 -18 -7 -5 0 3 14 20 32 32 34 25 30 -86 -53 -41 -31 -104 -74 -140 -96
-223 -137 -704 -366 -987 -469 -382 -138 -684 -263 -823 -339 -273 -152 -425
-307 -564 -577 -91 -176 -120 -285 -117 -443 4 -169 5 -184 15 -178 5 4 6 -6
2 -20 -8 -35 25 -135 70 -209 91 -149 312 -319 500 -385 74 -25 90 -27 244
-27 159 0 169 1 260 32 104 34 185 79 269 148 49 40 56 43 62 27 4 -10 8 -12
8 -5 1 7 16 12 43 12 64 0 334 -29 427 -46 46 -8 85 -13 87 -11 6 6 -88 34
-176 53 -50 11 -128 17 -232 18 -87 0 -158 4 -158 7 0 3 10 14 21 25 66 59
164 234 195 349 25 95 30 277 9 369 -24 111 -96 248 -164 316 -84 83 -121 108
-209 139 -106 37 -175 88 -197 145 -28 72 -18 204 21 286 63 132 172 218 338
265 131 38 333 4 475 -80 172 -102 276 -251 390 -560 53 -142 66 -176 83 -208
5 -10 6 -21 4 -26 -3 -4 4 -17 14 -29 11 -12 20 -24 20 -26 0 -9 74 -75 83
-76 9 0 64 23 97 39 8 5 41 16 72 25 31 9 60 21 63 26 10 16 25 12 26 -7 0
-15 2 -14 11 4 6 12 25 27 42 33 74 28 169 80 279 152 64 43 117 74 117 69 0
-5 11 -11 25 -13 14 -3 25 -2 25 1 0 3 17 6 37 7 20 0 39 6 41 12 6 18 22 14
22 -5 1 -17 1 -17 14 0 7 9 18 17 25 17 16 0 63 68 104 152 38 77 64 164 78
262 6 44 15 66 33 83 16 14 26 35 26 51 0 15 7 40 15 56 8 15 15 43 15 62 0
26 7 39 33 58 19 15 39 26 45 26 6 0 15 6 19 13 9 14 66 43 98 49 11 2 21 10
23 19 2 13 -4 15 -41 9 -43 -6 -44 -6 -43 22 1 15 4 28 9 28 4 0 7 6 7 13 0 7
9 23 21 36 12 12 22 28 23 34 1 7 5 13 9 14 5 1 19 17 31 35 17 24 21 39 15
55 -5 13 -4 25 1 28 6 4 10 15 10 25 0 25 55 112 64 102 7 -6 1 31 -10 66 -2
7 1 10 6 7 17 -10 34 6 19 17 -11 7 -11 11 -1 15 6 2 12 12 12 20 0 13 -3 13
-15 3 -13 -11 -14 -10 -9 4 3 9 12 16 20 16 8 0 14 10 14 25 0 14 9 35 20 47
11 12 20 31 20 41 0 30 41 78 210 247 156 155 218 225 207 236 -3 3 -18 -6
-34 -20 -15 -14 -33 -26 -39 -26 -12 0 -12 42 -1 70 3 8 15 47 28 85 12 39 27
80 32 92 6 13 8 26 4 29 -3 4 -22 -28 -41 -70 -19 -42 -38 -76 -42 -76 -3 0
-3 8 0 18 5 14 4 14 -9 -2 -8 -11 -15 -23 -15 -28 0 -4 -9 -8 -20 -8 -13 0
-20 -7 -20 -19 0 -10 -6 -24 -14 -30 -8 -7 -18 -27 -22 -44 -10 -50 -59 -140
-103 -190 -43 -50 -39 -53 -41 31 0 13 -7 34 -16 48 -9 13 -14 27 -11 31 4 3
-1 19 -10 36 -15 29 -16 30 -29 12 -13 -17 -14 -17 -20 1 -3 10 -10 28 -15 39
-5 11 -15 39 -24 63 -8 23 -21 53 -30 65 -15 21 -15 21 -9 -13 4 -19 8 -37 10
-39 1 -1 -1 -13 -6 -26 -5 -14 -5 -26 3 -34 6 -6 8 -12 4 -12 -4 -1 -11 -3
-17 -4 -5 -1 -17 -3 -25 -4 -21 -2 -19 -21 3 -21 12 0 14 -2 4 -8 -7 -5 -10
-16 -6 -25 3 -9 2 -17 -4 -17 -5 0 -13 -17 -16 -37 -3 -21 -8 -47 -10 -58 -2
-11 -5 -25 -5 -31 -1 -15 -51 -68 -51 -54 0 6 -5 8 -11 4 -8 -4 -9 0 -4 15 5
17 1 16 -24 -9 -53 -53 -56 -46 -56 117 l-1 148 -43 110 c-69 177 -114 251
-194 320 -39 33 -92 79 -119 103 -42 37 -135 92 -154 92 -3 0 -1 -7 6 -15 10
-13 9 -15 -9 -15 -39 0 -26 -37 22 -61 53 -27 113 -83 137 -129 25 -48 32
-134 14 -176 -13 -32 -37 -48 -32 -22 2 7 -7 14 -20 16 -13 2 -26 11 -29 20
-3 9 -14 35 -24 58 -11 22 -19 45 -19 52 0 6 -6 15 -13 19 -7 4 -23 32 -36 61
-14 29 -45 72 -71 95 -26 24 -57 63 -69 88 -12 24 -31 55 -42 69 -19 24 -19
24 1 -20z m203 -297 c19 -34 22 -58 8 -48 -9 5 -61 111 -61 123 0 7 33 -39 53
-75z m447 -737 c6 -6 10 -35 10 -66 0 -47 -5 -64 -30 -98 -16 -23 -39 -46 -51
-53 -21 -11 -22 -10 -17 29 3 23 13 55 22 73 20 41 20 48 0 23 -15 -19 -15
-19 -11 3 3 15 1 20 -9 16 -20 -7 -18 3 21 113 50 138 50 138 53 49 2 -44 7
-84 12 -89z m-126 -115 c-9 -18 -18 -30 -21 -28 -2 3 3 19 12 37 9 18 18 30
21 28 2 -3 -3 -19 -12 -37z m-636 -80 c-24 -27 -46 -47 -51 -44 -6 4 80 91 91
93 2 0 -16 -22 -40 -49z m603 16 c-10 -9 -11 -8 -5 6 3 10 9 15 12 12 3 -3 0
-11 -7 -18z m-673 -79 c-3 -7 -11 -13 -19 -13 -8 -1 -12 -7 -11 -15 2 -8 0
-12 -3 -8 -11 11 -47 -11 -39 -24 4 -6 3 -8 -3 -5 -5 4 -25 -5 -43 -18 -34
-25 -53 -33 -34 -16 21 22 140 110 147 110 5 1 7 -5 5 -11z m-2830 -1858 c0
-60 3 -114 7 -119 3 -6 6 -49 6 -96 0 -47 3 -85 7 -85 4 0 7 -20 7 -44 0 -25
-2 -43 -6 -40 -3 2 -4 -9 -2 -24 l4 -27 -20 23 c-52 60 -68 283 -29 433 12 49
23 89 24 89 1 0 2 -49 2 -110z m122 -642 l23 -33 -26 24 c-15 14 -27 28 -27
33 0 14 5 9 30 -24z"/>
<path d="M8200 9340 c0 -5 5 -10 10 -10 6 0 10 5 10 10 0 6 -4 10 -10 10 -5 0
-10 -4 -10 -10z"/>
<path d="M9295 9119 c-4 -6 -5 -12 -2 -15 2 -3 7 2 10 11 7 17 1 20 -8 4z"/>
<path d="M3845 6799 c-22 -44 -47 -87 -56 -95 -15 -14 -50 -20 -121 -23 -48
-2 -31 -18 32 -30 33 -7 60 -16 60 -22 0 -5 -12 -21 -26 -34 -30 -28 -34 -27
-149 33 -22 12 -39 26 -37 32 4 17 -27 24 -54 11 -27 -12 -24 -33 4 -29 11 2
18 -5 20 -19 4 -26 -13 -31 -22 -8 -4 13 -10 14 -26 5 -11 -6 -18 -15 -15 -21
9 -13 -9 -11 -23 3 -9 9 -12 9 -12 -1 0 -8 -7 -11 -20 -8 -11 3 -23 1 -26 -4
-7 -11 -74 -12 -74 -1 0 5 -19 9 -42 9 -51 0 -139 11 -146 18 -3 3 0 11 6 17
19 19 14 25 -28 32 -32 5 -52 1 -98 -22 -49 -24 -64 -27 -112 -21 -127 15
-513 -14 -530 -40 -3 -4 -26 -16 -52 -26 -27 -10 -48 -19 -48 -21 0 -7 65 6
123 25 60 20 176 41 227 40 21 0 22 -1 8 -9 -17 -11 -51 -70 -40 -70 4 0 39
11 77 25 66 23 169 36 120 15 -16 -7 -13 -9 17 -9 20 -1 39 -5 42 -10 3 -5 40
0 83 11 69 18 85 19 148 8 88 -15 188 -39 197 -48 4 -4 -46 -5 -111 -4 -83 3
-142 -1 -202 -13 -46 -9 -97 -18 -114 -20 -16 -1 -58 -10 -91 -19 -76 -20 -83
-20 -58 -1 15 13 13 13 -15 -1 -47 -23 -153 -108 -181 -146 -32 -43 -37 -149
-8 -167 26 -16 35 -7 30 27 -6 43 36 88 95 100 26 6 51 8 55 6 13 -8 -11 -46
-56 -89 -22 -22 -51 -55 -64 -73 -22 -32 -22 -33 -2 -27 15 5 20 2 20 -13 0
-11 7 -26 16 -33 15 -12 16 -11 10 9 -7 21 -6 22 11 12 16 -10 29 -1 98 65
119 114 191 166 255 183 82 22 315 10 442 -22 96 -24 239 -84 252 -105 10 -16
7 -15 -75 23 -113 52 -135 53 -35 2 49 -25 94 -50 100 -56 6 -6 11 -96 11
-248 1 -171 6 -267 19 -347 9 -60 19 -128 22 -150 2 -22 7 -46 9 -54 3 -7 12
-47 21 -88 8 -40 28 -116 44 -169 20 -64 26 -99 20 -107 -47 -57 -93 -123
-120 -170 -35 -63 -71 -172 -64 -192 3 -7 -4 -18 -15 -25 -19 -9 -25 -5 -53
35 -27 38 -34 43 -40 28 -10 -27 -9 -40 2 -23 17 27 12 -30 -11 -105 -11 -39
-21 -77 -23 -85 -1 -8 -8 -24 -15 -35 -11 -19 -12 -19 -5 4 4 15 3 21 -5 17
-5 -4 -13 -22 -17 -41 -7 -38 -15 -43 -34 -20 -20 24 -30 17 -23 -17 3 -18 2
-30 -2 -26 -5 4 -13 4 -19 -1 -7 -5 -32 1 -64 16 -30 13 -56 22 -58 20 -3 -2
20 -21 50 -42 58 -39 83 -81 43 -70 l-22 6 23 -20 c26 -23 28 -31 6 -31 -11 0
-14 -5 -10 -16 5 -13 2 -15 -16 -9 -49 14 -165 18 -173 5 -5 -8 -2 -17 8 -24
8 -6 24 -17 34 -24 15 -11 8 -12 -47 -8 l-65 5 58 -23 c57 -22 58 -23 41 -41
-16 -15 -16 -19 -3 -29 9 -6 14 -16 12 -22 -2 -6 10 -17 27 -24 34 -14 80 -48
80 -58 0 -4 -57 -6 -127 -4 -130 3 -154 -3 -66 -17 44 -7 46 -9 24 -18 l-25
-10 28 -18 c15 -10 25 -24 22 -31 -3 -8 -1 -14 4 -14 6 0 10 -5 10 -11 0 -7 8
-18 18 -25 16 -13 16 -14 0 -8 -12 4 -18 1 -18 -9 0 -14 -38 -26 -101 -32 -15
-1 -53 -14 -84 -29 -32 -14 -70 -26 -86 -26 -16 0 -29 -4 -29 -8 0 -4 -17 -14
-37 -21 -21 -8 -40 -18 -44 -22 -3 -5 -12 26 -19 69 -10 49 -16 67 -18 50 -2
-20 -9 -28 -23 -28 -16 0 -18 -4 -12 -27 4 -16 7 -44 6 -63 -1 -19 3 -37 8
-41 15 -9 -23 -87 -110 -229 -16 -25 -42 -70 -59 -101 -26 -46 -41 -60 -87
-84 -31 -15 -60 -36 -65 -45 -5 -10 -26 -28 -47 -40 -61 -36 -149 -113 -162
-142 -20 -44 -4 -115 33 -149 17 -16 35 -29 40 -29 5 0 17 -7 27 -16 9 -8 46
-25 80 -37 35 -13 90 -42 121 -66 51 -38 64 -43 122 -47 36 -2 85 -13 110 -24
41 -17 46 -23 60 -72 8 -29 20 -82 26 -118 15 -93 18 -97 36 -74 14 18 14 18
12 -6 -3 -22 -7 -25 -38 -22 -37 4 -35 -9 2 -15 30 -5 31 -7 14 -47 -18 -43
-36 -45 -115 -16 -39 15 -57 18 -66 10 -18 -15 -48 -152 -48 -220 0 -76 21
-161 42 -167 10 -2 27 -23 40 -46 24 -44 112 -109 119 -88 2 7 10 8 21 1 10
-5 21 -7 24 -4 3 3 19 -2 36 -10 60 -32 68 -19 19 31 -67 68 -87 135 -53 179
14 19 15 19 21 -3 4 -15 17 -24 39 -29 17 -3 45 -17 61 -31 34 -30 189 -133
200 -133 4 0 -1 9 -11 20 -18 20 -18 20 13 14 20 -4 32 -2 32 4 0 7 17 9 48 5
57 -6 146 16 194 50 47 33 110 96 125 124 19 37 16 53 -17 102 -17 24 -30 47
-30 52 0 4 -16 16 -34 27 -39 23 -176 42 -176 24 0 -6 -16 -16 -36 -22 -31
-11 -34 -14 -21 -28 7 -10 19 -35 25 -56 10 -35 9 -44 -8 -71 -25 -40 -58 -55
-120 -55 -64 0 -107 36 -151 126 -26 52 -32 79 -37 154 -3 64 -1 90 7 90 7 0
9 9 6 23 -7 26 49 133 93 180 27 28 132 87 155 87 7 0 32 -9 56 -21 31 -15 41
-25 36 -36 -3 -9 -1 -19 5 -23 7 -4 -4 -17 -24 -31 -20 -13 -36 -30 -36 -36 0
-7 -6 -13 -14 -13 -7 0 -16 -11 -18 -25 -7 -32 4 -32 107 0 91 28 111 31 75
10 -47 -27 -135 -57 -205 -70 -67 -13 -68 -13 -24 -14 62 -1 207 42 291 86 38
20 70 34 72 32 2 -2 6 -20 8 -39 3 -33 0 -37 -47 -62 -27 -16 -72 -39 -100
-52 -62 -31 -57 -31 50 -6 47 11 95 20 107 20 11 0 26 6 32 14 14 17 96 49
105 41 3 -4 -3 -13 -13 -21 -17 -12 -18 -14 -3 -14 15 0 16 -8 12 -52 -3 -29
-2 -66 4 -83 8 -28 9 -26 10 23 1 53 7 61 30 40 11 -11 13 -6 8 26 -4 25 -1
46 9 61 11 16 12 29 5 48 -8 20 -6 28 10 43 21 19 25 7 10 -31 -5 -11 -5 -25
0 -30 4 -6 10 -45 13 -88 6 -84 40 -166 90 -221 36 -38 43 -27 11 19 -25 38
-34 72 -15 60 6 -4 19 -23 29 -43 20 -39 58 -79 66 -70 3 2 -16 53 -42 112
-47 106 -47 107 -35 164 13 62 46 102 85 102 13 0 56 -30 102 -71 44 -39 124
-106 178 -150 88 -73 97 -83 97 -114 0 -19 -4 -36 -8 -39 -5 -3 -9 -18 -10
-33 -1 -15 -5 -40 -9 -56 -14 -47 3 -226 26 -288 48 -125 134 -220 274 -298
l58 -33 -22 -34 c-11 -19 -18 -42 -15 -51 4 -8 1 -22 -5 -29 -8 -10 -8 -14 0
-14 6 0 11 -7 11 -15 0 -9 6 -12 15 -9 22 9 19 -2 -15 -51 -20 -30 -61 -64
-120 -102 -49 -32 -92 -64 -95 -72 -8 -21 13 -39 56 -46 21 -4 37 -10 34 -15
-2 -4 4 -15 15 -25 18 -17 23 -17 67 -3 36 12 53 13 68 5 11 -6 24 -10 28 -9
5 1 6 -2 2 -7 -3 -6 -12 -8 -20 -5 -32 13 -118 -115 -113 -167 2 -26 9 -34 31
-40 15 -4 27 -3 27 2 0 5 21 9 46 9 34 0 51 5 63 19 15 17 22 19 59 9 36 -9
53 -7 115 13 39 12 88 32 107 43 82 46 126 66 149 66 16 0 21 4 18 14 -3 8 3
22 14 31 13 12 17 26 13 44 l-5 26 16 -27 c17 -31 48 -39 39 -10 -5 16 -5 16
6 0 20 -32 32 -20 25 24 -5 36 -3 47 15 66 43 46 71 46 218 -3 9 -3 2 -19 -22
-51 -19 -25 -42 -68 -51 -95 -16 -47 -16 -51 2 -82 11 -17 32 -36 49 -42 16
-5 30 -10 32 -10 1 -1 -5 -16 -14 -34 -17 -35 -87 -84 -167 -118 -27 -11 -48
-24 -47 -29 0 -5 27 -9 60 -8 66 1 80 -11 24 -22 -36 -7 -94 -47 -94 -66 0
-10 55 -2 75 11 6 3 28 6 51 7 51 2 159 37 199 65 l30 21 -49 -6 c-27 -3 -61
-13 -74 -22 -35 -23 -84 -36 -79 -21 5 15 98 52 167 66 30 6 72 15 92 20 22 5
36 5 32 0 -3 -5 6 -9 19 -9 16 0 26 7 29 18 9 32 168 92 168 63 0 -5 -29 -33
-65 -61 -67 -53 -80 -78 -45 -87 15 -4 1 -14 -56 -39 -42 -18 -89 -36 -105
-39 -16 -4 -29 -13 -29 -20 0 -8 -9 -17 -20 -20 -11 -3 -20 -11 -20 -17 0 -6
9 -8 23 -3 12 4 34 9 50 12 15 3 30 9 33 14 3 5 19 9 36 9 17 0 39 6 47 13 41
34 261 101 277 84 3 -3 -14 -18 -38 -33 -23 -15 -47 -33 -53 -40 -5 -7 -48
-24 -95 -38 -112 -35 -114 -36 -107 -42 6 -6 156 34 244 65 29 10 50 21 47 24
-3 3 -13 3 -22 0 -9 -4 -13 -2 -9 4 4 6 30 13 58 16 51 6 93 27 55 27 -15 0
-16 3 -6 15 7 8 21 15 31 15 11 0 28 9 39 20 11 11 29 20 40 20 10 0 23 7 27
15 5 8 61 48 126 90 132 84 282 193 342 250 51 47 21 29 -91 -58 -49 -37 -143
-95 -209 -129 -66 -33 -172 -94 -236 -135 -105 -67 -119 -73 -143 -63 -34 12
-29 32 10 45 69 24 94 51 53 57 -18 3 -12 13 45 70 37 38 71 68 76 68 6 0 10
5 10 11 0 7 -9 9 -22 5 -13 -4 -32 -10 -43 -13 -11 -4 14 22 55 57 248 212
655 651 729 788 24 45 66 109 94 143 27 35 66 97 85 137 42 93 110 297 117
354 4 33 -1 24 -20 -37 -44 -136 -151 -402 -160 -394 -2 3 5 36 16 74 28 101
17 105 -16 6 -21 -64 -30 -80 -37 -67 -11 19 -28 21 -28 3 0 -8 -11 -19 -24
-25 -13 -6 -83 -80 -154 -164 -134 -159 -171 -197 -160 -167 5 13 2 16 -13 12
-10 -3 -19 -12 -19 -20 0 -8 -4 -11 -10 -8 -12 7 -48 -28 -116 -110 -27 -33
-51 -62 -54 -65 -13 -13 -33 -61 -27 -66 21 -22 259 169 296 236 29 54 176
251 221 297 42 44 65 44 56 1 -10 -50 -112 -221 -173 -290 -298 -336 -355
-389 -503 -463 -52 -26 -107 -56 -122 -66 -14 -11 -37 -19 -50 -19 -25 0 -60
-18 -129 -64 -24 -17 -73 -41 -109 -54 l-65 -23 22 23 c19 21 63 92 63 103 0
3 -25 2 -57 -1 l-56 -7 7 43 c10 61 22 80 54 81 15 0 45 6 67 14 l40 13 -42 1
c-24 1 -43 6 -43 12 0 6 -9 8 -20 4 -33 -10 -23 13 23 55 47 45 46 45 -42 25
-35 -9 -66 -13 -68 -11 -14 13 212 326 362 501 87 102 272 292 297 306 9 5 28
34 42 65 39 86 91 149 139 172 37 18 50 34 109 139 104 184 172 353 224 555
27 105 28 106 52 97 18 -7 10 5 -28 40 -29 27 -49 54 -46 60 10 16 -12 168
-29 202 -29 55 -39 31 -40 -97 -2 -135 -6 -155 -48 -239 -85 -170 -222 -327
-425 -487 -48 -38 -98 -78 -112 -90 -14 -12 -56 -46 -95 -76 -38 -31 -100 -79
-136 -109 -66 -52 -91 -59 -103 -27 -10 27 7 44 80 81 41 20 72 38 70 40 -2 2
-37 -9 -77 -25 -80 -31 -208 -74 -277 -92 -158 -41 -465 -61 -633 -41 -111 13
-362 74 -367 90 -6 19 40 184 78 277 100 246 282 457 475 552 82 41 138 55
221 55 l72 0 17 39 c23 53 77 88 135 88 41 0 64 -9 120 -51 13 -9 26 -5 65 18
28 17 88 51 135 76 47 25 95 55 106 66 12 11 25 17 28 14 3 -4 6 -2 6 4 0 6
64 60 142 119 232 178 399 336 491 465 78 110 59 102 -47 -20 -22 -26 -43 -45
-48 -44 -4 2 -8 -2 -8 -8 0 -22 -44 -72 -136 -153 -103 -93 -234 -193 -255
-198 -8 -2 -20 -11 -27 -21 -7 -9 -17 -15 -22 -12 -4 3 -10 -2 -14 -10 -3 -8
-12 -15 -20 -15 -8 0 -19 -8 -25 -17 -5 -10 -12 -15 -16 -12 -3 4 25 33 62 64
158 133 482 429 530 483 36 41 62 61 84 66 21 4 29 10 26 20 -7 19 110 147
128 139 8 -3 15 0 15 6 0 6 5 11 10 11 6 0 10 -6 10 -14 0 -15 56 -39 70 -31
5 3 12 0 15 -6 4 -5 14 -8 23 -4 13 5 12 2 -3 -15 -18 -19 -18 -20 1 -20 14 0
11 -4 -11 -16 -61 -31 -50 -41 23 -18 6 2 12 -1 12 -6 0 -6 7 -10 15 -10 17 0
21 -16 5 -22 -5 -1 3 -23 19 -48 15 -25 26 -50 24 -55 -2 -6 5 -20 15 -31 10
-11 22 -32 26 -48 4 -16 16 -30 26 -33 12 -3 20 -14 20 -27 0 -33 14 -47 47
-44 29 2 30 4 42 77 9 54 10 76 2 79 -6 2 -11 14 -11 26 0 13 -9 35 -21 50
-11 14 -18 30 -15 35 3 5 -1 14 -8 21 -8 6 -18 26 -22 43 -3 18 -11 38 -17 45
-8 11 -7 16 6 23 21 12 22 29 2 29 -8 0 -15 9 -15 21 0 11 -4 18 -9 14 -5 -3
-12 -1 -15 4 -4 5 -2 12 4 16 5 3 10 15 10 26 0 11 4 18 9 14 6 -3 13 0 18 7
4 7 19 13 33 13 24 0 25 3 27 70 2 62 5 73 29 93 17 15 32 21 43 16 9 -4 36
-9 61 -12 53 -5 73 -18 65 -43 -4 -11 -2 -19 4 -19 6 0 11 -11 11 -25 0 -14 5
-25 11 -25 6 0 28 -39 50 -87 64 -142 80 -172 130 -237 56 -73 204 -216 242
-233 37 -17 43 -16 64 6 18 18 20 18 87 -10 38 -15 83 -31 100 -34 l31 -6 -33
26 c-17 15 -37 36 -43 47 -11 20 -9 20 47 14 l59 -7 -30 26 -30 25 48 0 c26 0
47 4 47 10 0 11 55 27 122 35 82 11 79 44 -7 59 -81 14 -125 31 -125 48 0 10
5 18 10 18 6 0 10 -6 10 -12 0 -10 3 -9 9 1 5 7 13 11 19 7 6 -3 13 13 16 39
4 25 12 45 17 45 6 0 8 8 4 19 -7 22 25 32 190 56 114 17 242 45 285 63 20 9
10 11 -55 12 l-80 1 63 21 c60 20 104 58 67 58 -24 0 -19 8 43 70 69 71 92 97
92 109 0 5 7 12 16 15 8 3 13 10 10 15 -4 5 -3 11 1 13 12 5 43 64 43 82 0 9
7 28 16 41 9 14 14 31 11 38 -3 8 -1 20 3 28 5 8 4 19 -2 26 -8 11 -7 12 7 7
17 -7 18 -2 13 59 -4 46 -2 66 6 64 6 -1 9 5 7 13 -3 8 -5 31 -6 50 -1 20 -4
41 -8 47 -4 6 -4 18 -1 26 3 8 1 18 -5 21 -6 4 -7 14 -4 23 5 12 3 14 -8 9 -8
-4 -6 -1 3 7 12 9 14 17 7 24 -5 5 -12 27 -14 49 -8 76 -22 121 -41 128 -8 3
-14 12 -14 20 0 7 -8 17 -17 21 -17 7 -16 8 2 15 l20 9 -20 1 c-11 2 -24 2
-29 1 -5 -1 -12 2 -15 8 -7 11 -99 -5 -119 -22 -16 -13 -72 -17 -72 -5 0 5
-10 2 -22 -6 -12 -9 -30 -16 -40 -16 -10 0 -18 -7 -18 -15 0 -8 -6 -15 -12
-16 -16 0 -35 -25 -141 -180 -112 -165 -134 -208 -102 -195 19 7 19 -3 0 -28
-8 -11 -12 -29 -9 -42 3 -12 1 -25 -5 -28 -24 -15 -7 -21 62 -22 93 0 132 -17
156 -69 37 -79 28 -130 -38 -211 -65 -82 -130 -114 -228 -114 -97 0 -149 13
-258 65 -119 57 -209 124 -235 175 -11 21 -20 45 -20 52 0 7 -12 37 -25 67
-14 30 -22 57 -17 60 4 3 8 20 7 38 0 26 3 30 18 22 9 -5 17 -15 17 -22 0 -8
3 -8 9 1 4 8 12 13 17 13 5 -1 9 3 9 8 0 5 3 13 8 17 4 4 7 16 7 26 0 10 7 18
15 18 10 0 12 6 8 18 -6 15 -5 15 10 3 15 -12 17 -11 17 5 1 20 39 -51 40 -72
0 -7 7 -15 16 -18 62 -24 139 228 170 559 3 33 8 68 10 77 15 52 14 66 -7 71
-27 7 -49 -1 -49 -19 0 -8 -7 -14 -15 -14 -8 0 -15 -4 -15 -9 0 -5 -9 -11 -19
-14 -14 -3 -21 2 -25 19 -6 23 -25 30 -66 25 -47 -6 -56 -15 -64 -62 -9 -58
-27 -74 -54 -48 -12 10 -28 19 -36 19 -8 0 -18 5 -22 11 -4 8 -9 7 -15 -2 -6
-10 -9 -7 -10 11 0 14 -3 19 -6 13 -8 -21 -30 -15 -65 16 -18 15 -38 26 -44
24 -15 -5 -77 133 -72 161 3 16 1 23 -7 20 -16 -6 -37 83 -21 90 6 2 4 5 -5 5
-20 1 -31 24 -23 46 4 9 0 15 -9 15 -9 0 -23 9 -31 21 -8 12 -19 18 -26 14 -6
-4 -17 -1 -25 5 -9 7 -15 8 -15 2 0 -12 -80 -25 -103 -16 -9 3 -17 12 -17 20
0 8 -4 14 -10 14 -5 0 -10 -9 -10 -19 0 -25 -30 -18 -60 13 -18 20 -20 28 -11
67 5 24 9 45 7 46 -2 2 -25 -45 -51 -104 -26 -60 -61 -134 -76 -165 -28 -55
-30 -57 -62 -52 -17 3 -62 21 -98 40 -79 40 -107 44 -59 9 l34 -25 -55 0 c-30
0 -70 4 -89 9 -67 18 -315 30 -375 18 -41 -7 -82 -20 -138 -44 -54 -22 -59
-22 -82 -7 l-26 17 18 -32 c18 -32 18 -32 -7 -52 -14 -12 -36 -30 -50 -42 -27
-24 -76 -49 -100 -52 -42 -5 -60 -19 -74 -61 -8 -24 -13 -44 -10 -44 3 0 -5
-14 -17 -32 -13 -17 -25 -26 -27 -20 -6 20 -20 13 -15 -7 3 -11 -3 -24 -14
-32 -12 -9 -23 -38 -32 -84 -7 -38 -28 -140 -47 -225 -55 -257 -75 -563 -43
-660 9 -30 23 -81 29 -114 7 -32 28 -111 47 -175 19 -64 35 -124 36 -133 1
-10 4 -18 8 -18 3 0 12 -19 19 -42 16 -54 14 -187 -4 -275 -24 -114 -99 -304
-113 -289 -4 3 -17 -11 -30 -32 -24 -37 -24 -33 -2 48 7 25 13 101 13 170 1
104 -3 137 -22 200 -27 83 -63 159 -99 207 -30 39 -43 123 -19 123 32 0 15 20
-26 31 -24 6 -60 19 -82 30 -21 10 -43 16 -47 13 -5 -3 -28 6 -51 19 -50 27
-132 59 -144 56 -5 -1 -22 3 -39 10 -63 26 -275 18 -312 -12 -20 -15 -16 94 6
161 10 31 22 71 25 87 7 29 7 29 -8 10 -15 -20 -15 -20 -16 2 -1 58 66 179
135 244 19 18 33 35 30 37 -9 9 -95 -61 -151 -124 -34 -38 -77 -86 -96 -106
l-33 -38 -15 23 c-8 12 -13 25 -12 30 1 4 -1 7 -6 7 -11 0 -5 -109 7 -123 11
-14 -7 -107 -21 -107 -4 0 -8 -7 -8 -16 0 -10 -5 -14 -16 -10 -10 4 -13 2 -8
-6 7 -11 7 -54 1 -91 -2 -9 -18 -28 -37 -40 -32 -22 -34 -23 -51 -6 -9 9 -22
32 -27 50 -6 19 -16 51 -22 73 -8 26 -9 41 -2 45 6 3 8 19 5 34 -4 20 -10 26
-21 22 -12 -4 -12 -3 -3 8 13 16 -4 77 -21 77 -6 0 -8 6 -5 13 8 20 -9 41 -26
34 -10 -4 -13 -13 -10 -28 4 -13 2 -20 -4 -16 -6 4 -9 -5 -7 -21 11 -111 15
-139 20 -157 6 -17 5 -18 -10 -6 -9 7 -16 19 -16 26 0 7 -7 18 -15 25 -12 10
-15 10 -15 -4 0 -32 -17 -15 -39 42 -40 101 -41 102 -38 32 5 -95 61 -219 163
-358 16 -22 16 -22 -17 -18 -19 3 -41 7 -50 11 -15 5 -17 -1 -15 -47 1 -44 7
-61 32 -93 17 -22 35 -48 41 -58 12 -24 4 -79 -11 -70 -41 23 103 -108 164
-149 115 -76 325 -177 393 -188 33 -5 67 -12 77 -15 29 -9 33 13 11 51 -28 47
-27 80 3 99 38 25 88 29 151 10 111 -32 225 -179 225 -290 0 -24 -8 -41 -27
-60 -15 -14 -31 -25 -36 -25 -15 0 -47 -66 -47 -100 l0 -35 -58 -1 c-89 -2
-165 -29 -297 -104 -210 -121 -281 -121 -465 -2 -120 78 -179 102 -248 102
-31 0 -62 -4 -69 -8 -16 -10 -110 -196 -139 -275 -18 -53 -54 -212 -54 -244 0
-2 -4 -2 -9 1 -4 3 -17 -15 -27 -39 -10 -25 -21 -45 -25 -45 -17 0 -102 76
-174 156 -162 180 -229 275 -325 462 l-63 122 18 41 c16 35 22 40 44 34 25 -6
25 -6 -4 16 -17 13 -32 24 -34 26 -2 1 3 13 12 27 26 39 96 325 103 422 5 67
2 104 -10 150 -18 69 -55 158 -63 151 -2 -3 0 -14 5 -24 21 -39 51 -144 56
-200 l6 -58 -15 65 c-8 35 -26 93 -40 129 -28 68 -112 206 -144 235 -19 17
-19 19 4 105 47 174 177 426 281 544 l41 46 16 -52 c19 -59 16 -73 -7 -29 -21
40 -32 46 -39 22 -3 -11 -1 -18 4 -15 4 3 20 -12 33 -34 14 -22 29 -42 35 -45
5 -3 24 -41 41 -84 41 -97 142 -281 193 -349 21 -28 54 -64 74 -79 35 -26 35
-26 23 -3 -7 13 -35 48 -64 78 -40 42 -44 49 -18 32 45 -31 40 -18 -15 39 -50
50 -120 156 -110 166 3 3 32 -34 65 -83 58 -86 127 -162 137 -152 12 13 -18
74 -59 120 -38 42 -86 137 -86 169 0 11 -60 153 -96 228 -28 58 -28 93 0 49
10 -15 24 -27 31 -27 6 0 26 -16 44 -36 18 -19 35 -33 39 -30 3 3 -2 14 -11
24 -19 21 -22 32 -7 32 6 0 15 -12 21 -27 5 -14 38 -56 72 -93 38 -40 85 -108
121 -173 55 -98 106 -166 106 -139 0 6 -4 14 -10 17 -5 3 -10 13 -10 22 0 8
-16 40 -35 71 -19 32 -39 77 -46 102 -38 154 -59 264 -60 325 -2 84 -7 70 -17
-50 l-9 -90 -17 40 c-9 22 -21 49 -26 60 -9 18 -10 18 -8 -5 1 -14 -1 -30 -5
-36 -3 -6 -2 -26 3 -45 14 -49 12 -57 -8 -28 -9 15 -31 38 -48 52 -38 32 -62
104 -45 136 9 16 8 29 -3 56 -15 34 -15 35 18 60 44 34 164 95 184 95 15 -1
14 -3 -2 -15 -19 -15 -17 -17 14 -19 8 -1 25 -17 37 -35 l24 -35 -5 47 c-3 26
-7 50 -10 55 -3 5 43 14 101 21 59 7 123 19 142 28 119 51 153 62 140 45 -7
-9 -24 -28 -38 -40 -19 -17 -21 -21 -6 -14 45 23 80 71 80 112 0 74 -75 115
-210 115 -79 0 -86 -2 -224 -62 -11 -5 -13 3 -8 43 6 48 6 48 -8 19 -8 -16
-14 -39 -15 -49 -1 -42 -145 -133 -196 -123 -20 3 -22 2 -13 -9 9 -11 8 -14 0
-14 -7 0 -24 26 -38 57 -48 105 -43 301 11 419 69 150 211 223 472 243 66 5
127 9 135 8 17 -2 124 21 162 35 15 6 27 16 27 22 0 15 -85 149 -138 219 -78
100 -257 237 -426 323 -50 26 -93 48 -95 50 -2 2 3 14 11 26 15 22 14 23 -18
25 -18 2 -36 -2 -39 -7 -8 -13 -40 -13 -88 1 -23 6 -35 14 -31 21 5 7 -2 9
-20 4 -19 -5 -26 -3 -26 9 0 10 -14 17 -40 21 -46 7 -48 15 -19 64 19 32 18
32 -18 -9 -34 -38 -43 -43 -66 -37 -33 8 -33 11 -2 88 14 34 24 63 22 64 -2 2
-21 -33 -42 -77z m-1235 -233 c0 -3 -4 -8 -10 -11 -5 -3 -10 -1 -10 4 0 6 5
11 10 11 6 0 10 -2 10 -4z m1310 -11 c22 -13 23 -14 5 -14 -11 0 -33 6 -50 14
-29 13 -29 13 -5 14 14 0 36 -6 50 -14z m-336 -11 c9 -8 16 -17 16 -20 0 -8
-111 -1 -116 8 -3 4 -10 6 -15 3 -5 -4 -30 -3 -55 1 -71 10 -33 24 68 24 66 0
90 -4 102 -16z m296 -18 c0 -3 -4 -8 -10 -11 -5 -3 -10 -1 -10 4 0 6 5 11 10
11 6 0 10 -2 10 -4z m-237 -43 c-7 -2 -21 -2 -30 0 -10 3 -4 5 12 5 17 0 24
-2 18 -5z m7 -23 c0 -5 -5 -10 -11 -10 -5 0 -7 5 -4 10 3 6 8 10 11 10 2 0 4
-4 4 -10z m410 -201 c15 -27 25 -164 13 -172 -5 -3 -10 11 -11 31 -2 20 -7 51
-11 67 -24 82 -18 126 9 74z m-394 -381 c0 -151 -3 -214 -7 -168 -13 155 -10
410 6 410 0 0 1 -109 1 -242z m83 174 c9 -10 24 -21 34 -25 10 -4 17 -17 17
-32 0 -25 20 -37 20 -12 0 7 7 4 15 -7 16 -21 21 -117 6 -100 -5 5 -12 18 -15
29 -3 11 -3 -2 0 -30 4 -27 7 -115 8 -195 l3 -145 -24 80 c-28 91 -48 122 -39
60 5 -29 4 -35 -3 -20 -5 11 -10 44 -10 73 -1 29 -5 61 -10 70 -5 9 -12 42
-15 72 -21 211 -21 220 13 182z m-30 -277 c6 -11 14 -45 20 -75 12 -69 53
-213 75 -264 9 -21 16 -44 16 -50 -1 -6 -7 4 -15 22 -8 17 -17 32 -21 32 -6 0
2 -58 13 -86 3 -8 1 -14 -5 -14 -36 0 -112 364 -112 541 0 123 15 144 18 24 1
-60 6 -119 11 -130z m251 21 c43 -84 45 -90 48 -192 4 -105 -13 -219 -41 -269
-10 -17 -12 -14 -18 30 -3 28 -9 59 -13 70 -8 20 -7 20 8 1 22 -27 20 -10 -5
41 -28 58 -17 68 12 11 36 -70 32 -28 -5 53 -55 121 -63 154 -58 257 3 63 8
92 15 89 7 -2 32 -43 57 -91z m-293 -218 c-3 -7 -5 -2 -5 12 0 14 2 19 5 13 2
-7 2 -19 0 -25z m242 -10 c10 -30 9 -31 -4 -14 -8 11 -15 26 -15 33 0 22 8 14
19 -19z m-70 -108 c0 -13 -1 -13 -8 0 -5 8 -12 26 -15 40 l-7 25 15 -25 c9
-14 15 -32 15 -40z m30 -154 c1 -5 -5 -3 -13 4 -8 6 -12 19 -9 27 6 14 8 14
14 -3 4 -10 8 -23 8 -28z m2223 14 c28 -25 31 -31 18 -40 -13 -9 -12 -13 7
-29 12 -10 30 -32 40 -48 10 -16 42 -66 71 -111 30 -44 52 -82 50 -84 -1 -2
27 -32 65 -67 56 -53 67 -69 67 -96 0 -27 -5 -34 -25 -39 -16 -4 -23 -11 -19
-18 5 -8 1 -9 -12 -3 -10 4 -29 7 -41 7 -12 -1 -25 3 -28 8 -3 6 -11 10 -17
10 -6 0 -3 -9 8 -21 16 -17 16 -22 4 -29 -22 -14 -25 -13 -59 25 -33 39 -47
45 -32 16 16 -29 88 -101 102 -101 8 0 5 7 -6 20 -22 24 -12 39 12 19 10 -8
40 -21 68 -28 52 -13 65 -24 65 -55 0 -15 -5 -17 -27 -13 -16 3 -37 9 -48 13
-18 7 -18 6 -5 -7 8 -8 28 -20 43 -27 15 -6 26 -16 22 -21 -3 -5 0 -13 6 -17
8 -4 9 -3 5 4 -4 7 -2 12 3 12 13 0 14 -6 1 -29 -7 -14 -4 -21 15 -31 40 -21
32 -44 -11 -37 -84 14 -244 145 -296 243 -14 27 -37 70 -51 96 -14 26 -32 66
-38 89 -7 23 -15 37 -16 32 -2 -6 9 -46 25 -90 66 -179 175 -296 362 -389 39
-19 70 -41 70 -48 0 -8 6 -17 13 -20 10 -5 10 -7 0 -12 -18 -8 -16 -25 4 -40
10 -7 15 -16 11 -20 -4 -4 -14 -2 -22 5 -11 9 -14 8 -12 -6 0 -10 -9 -22 -21
-28 -13 -5 -23 -13 -23 -17 0 -5 -7 -8 -15 -8 -8 0 -15 3 -15 8 0 4 -15 16
-34 26 -117 63 -260 260 -322 443 -20 59 -64 287 -64 331 0 51 35 193 50 202
8 5 9 10 2 14 -12 7 -5 36 9 36 5 0 23 -13 41 -30z m211 -32 c4 -10 8 -10 15
0 6 10 11 -1 15 -35 6 -55 6 -56 -17 -47 -21 8 -49 61 -42 80 7 17 23 18 29 2z
m232 -118 c3 -6 -1 -7 -9 -4 -18 7 -21 14 -7 14 6 0 13 -4 16 -10z m-2527
-207 c-2 -9 15 -51 40 -98 l15 -30 -26 24 c-30 27 -61 87 -52 101 7 12 26 14
23 3z m-259 -73 c-12 -22 -25 -40 -31 -40 -13 0 -68 -124 -58 -130 4 -3 2 -18
-5 -35 l-13 -30 -1 44 c-1 50 32 124 86 188 19 24 36 43 39 43 2 0 -6 -18 -17
-40z m2889 -45 c15 -5 16 -124 2 -245 -13 -109 -15 -118 -22 -126 -11 -11 -30
7 -20 19 5 7 4 22 -4 36 l-12 24 -5 -24 c-3 -19 -5 -17 -6 9 0 18 3 31 8 27 5
-3 12 -1 16 5 3 5 -3 10 -14 10 -14 0 -21 6 -21 19 0 10 -13 72 -30 137 -16
66 -30 120 -30 122 0 4 120 -8 138 -13z m57 -33 c0 -22 3 -44 7 -48 4 -4 3
-13 -3 -21 -9 -10 -7 -13 7 -13 15 0 15 -3 -5 -24 l-23 -24 28 -4 c34 -4 54
-50 35 -80 -6 -10 -9 -23 -6 -28 4 -6 -2 -10 -12 -10 -13 0 -14 -3 -5 -8 7 -5
11 -19 10 -33 -2 -17 1 -23 12 -21 11 3 12 1 3 -8 -6 -7 -30 -16 -53 -20 -42
-8 -42 -8 -36 20 3 16 8 105 12 200 5 116 11 169 18 167 6 -2 11 -22 11 -45z
m-746 -94 c0 -45 -3 -57 -9 -43 -12 28 -12 105 0 105 6 0 10 -27 9 -62z m109
-49 c-3 -8 -7 -3 -11 10 -4 17 -3 21 5 13 5 -5 8 -16 6 -23z m-98 -71 c7 -24
31 -98 54 -165 24 -68 39 -123 34 -123 -5 0 -15 14 -22 30 -12 29 -30 33 -19
4 3 -8 1 -14 -5 -14 -5 0 -15 23 -22 50 -7 29 -18 50 -26 50 -14 0 -25 50 -20
90 2 14 4 46 5 73 0 26 3 47 6 47 2 0 9 -19 15 -42z m135 2 c3 -5 1 -10 -4
-10 -6 0 -11 5 -11 10 0 6 2 10 4 10 3 0 8 -4 11 -10z m-2045 -44 c0 -12 -5
-7 -19 24 -11 24 -11 24 3 6 9 -11 16 -24 16 -30z m2079 -14 c11 -21 27 -45
36 -52 10 -8 21 -25 26 -37 5 -13 15 -26 24 -29 8 -3 35 -26 61 -50 25 -25 58
-51 73 -58 31 -17 81 -74 81 -93 0 -8 -10 -18 -22 -23 -13 -5 -17 -9 -10 -9
17 -1 15 -18 -3 -24 -9 -4 -19 4 -27 20 -7 15 -19 29 -27 31 -9 3 -11 0 -6 -8
5 -9 4 -11 -3 -6 -9 5 -9 13 -2 26 13 25 14 23 -20 48 -37 28 -39 21 -3 -13
15 -14 24 -25 19 -25 -16 0 -56 43 -56 59 0 10 -10 17 -27 18 -28 1 -87 58
-78 74 3 4 -2 9 -10 13 -8 3 -15 12 -15 21 0 8 -4 23 -8 33 -5 9 -15 31 -23
47 -13 26 -15 75 -4 75 3 0 13 -17 24 -38z m615 -125 c-1 -13 2 -14 16 -7 24
13 27 13 34 -5 11 -30 -75 -221 -95 -209 -5 3 -9 12 -9 20 0 8 -4 14 -10 14
-5 0 -10 -4 -10 -9 0 -5 -11 -8 -25 -7 -14 0 -25 5 -25 9 0 5 -5 5 -11 1 -13
-8 -10 18 18 139 16 75 32 89 87 77 20 -4 31 -12 30 -23z m-144 -67 c-20 -91
-32 -94 -24 -5 3 44 11 83 18 87 17 11 20 -20 6 -82z m1330 37 c0 -10 -4 -16
-9 -12 -5 3 -12 1 -16 -5 -4 -6 -10 -8 -15 -5 -5 3 -1 19 8 35 17 29 32 24 32
-13z m-88 16 c10 -9 18 -22 18 -30 0 -7 5 -13 10 -13 6 0 10 -5 10 -12 0 -9
-3 -9 -12 0 -7 7 -29 12 -50 12 -21 0 -38 4 -38 9 0 5 -3 16 -6 24 -4 11 2 17
18 20 13 2 25 5 27 6 3 0 13 -6 23 -16z m-1856 -241 c-6 -6 -26 43 -25 61 0 7
7 -3 15 -22 8 -18 13 -36 10 -39z m664 -2 c0 -14 -32 -50 -41 -45 -5 3 -6 -1
-3 -9 3 -9 1 -16 -5 -16 -6 0 -11 14 -11 31 0 17 -4 28 -10 24 -5 -3 -8 0 -5
7 5 13 75 21 75 8z m26 -37 c-28 -55 -55 -93 -56 -77 0 5 7 19 15 30 8 10 15
27 15 37 0 15 33 57 45 57 3 0 -6 -21 -19 -47z m223 15 c-15 -29 -54 -79 -147
-190 -73 -87 -112 -124 -51 -49 19 24 28 44 24 52 -5 7 -4 10 2 6 13 -8 47 29
39 42 -6 9 80 151 91 151 7 0 -18 -43 -54 -93 -19 -27 -33 -51 -31 -53 3 -2
32 35 67 82 58 80 89 107 60 52z m-874 -65 c-2 -8 2 -24 10 -37 9 -13 12 -31
9 -41 -6 -14 -10 -9 -24 21 -10 22 -20 54 -24 73 -6 34 -6 34 14 16 12 -10 18
-25 15 -32z m1132 41 c-3 -3 -12 -4 -19 -1 -8 3 -5 6 6 6 11 1 17 -2 13 -5z
m-247 -41 c-11 -16 -28 -39 -38 -53 -9 -14 -48 -56 -86 -95 l-68 -70 43 58
c24 31 47 57 52 57 4 0 6 4 3 9 -3 5 14 27 39 50 25 23 45 48 45 56 0 8 7 15
16 15 13 0 12 -5 -6 -27z m39 -35 c-12 -23 -273 -286 -359 -363 -25 -22 9 16
75 85 66 69 155 165 199 213 76 85 109 110 85 65z m-805 -64 c3 -8 2 -12 -4
-9 -6 3 -10 10 -10 16 0 14 7 11 14 -7z m116 -65 c0 -10 -5 -21 -11 -25 -8 -5
-8 -9 1 -14 9 -6 9 -13 -2 -31 -7 -13 -14 -26 -15 -28 -1 -2 -9 4 -18 12 -18
19 -19 34 -4 93 11 43 12 44 30 28 11 -9 19 -25 19 -35z m-40 -130 c0 -29 -15
-40 -22 -17 -7 19 3 58 13 52 5 -3 9 -18 9 -35z m-3059 -39 c10 0 19 -6 19
-14 0 -15 -21 -26 -51 -26 -10 0 -19 -4 -19 -10 0 -5 -17 -12 -37 -16 -21 -4
-56 -15 -78 -25 -22 -10 -55 -19 -72 -19 -18 0 -33 -4 -33 -10 0 -5 -16 -12
-35 -16 -19 -3 -39 -14 -45 -23 -7 -12 -12 -13 -21 -4 -32 32 279 186 339 167
8 -2 22 -4 33 -4z m3409 6 c0 -2 -8 -10 -17 -17 -16 -13 -17 -12 -4 4 13 16
21 21 21 13z m50 0 c0 -2 -8 -10 -17 -17 -16 -13 -17 -12 -4 4 13 16 21 21 21
13z m-3026 -264 c19 -37 46 -49 62 -27 11 14 12 14 18 -1 11 -28 6 -60 -16
-113 -14 -35 -26 -51 -37 -49 -22 5 -72 132 -79 202 l-5 59 21 -21 c11 -11 28
-34 36 -50z m2636 -146 c0 -2 -8 -10 -17 -17 -16 -13 -17 -12 -4 4 13 16 21
21 21 13z m-3073 -41 c98 -32 111 -44 88 -79 -25 -37 -45 -33 -45 8 0 51 -16
52 -26 3 -8 -42 -8 -42 -12 -9 -4 36 -16 41 -32 12 -6 -11 -15 -20 -21 -20 -6
0 -8 4 -5 9 4 5 -10 4 -30 -2 -31 -9 -38 -9 -49 6 -7 9 -16 17 -20 17 -17 0
-64 42 -59 54 16 42 84 42 211 1z m3819 -471 c-4 -20 -10 -34 -12 -31 -3 3 -2
21 2 41 3 21 9 35 11 32 3 -3 2 -21 -1 -42z m-3391 -15 c-5 -16 -4 -19 5 -14
10 6 12 -12 8 -81 -5 -94 -26 -154 -54 -154 -9 0 -12 5 -8 12 4 6 -5 3 -19 -8
-15 -10 -27 -26 -27 -34 0 -13 -1 -13 -10 0 -5 8 -7 23 -4 33 6 18 -20 25 -31
7 -8 -13 -30 -13 -77 1 -40 11 -50 28 -20 36 9 2 30 22 45 44 16 21 33 39 38
39 14 0 76 68 97 105 l16 30 6 -35 6 -35 8 38 c5 20 13 37 18 37 5 0 6 -10 3
-21z m3369 -63 c-3 -15 -8 -25 -11 -23 -2 3 -1 17 3 31 3 15 8 25 11 23 2 -3
1 -17 -3 -31z m-32 -108 c-18 -55 -67 -171 -60 -142 2 6 19 56 38 112 37 109
55 134 22 30z m-3285 10 c-3 -8 -6 -5 -6 6 -1 11 2 17 5 13 3 -3 4 -12 1 -19z
m-10 -63 c-6 -38 -4 -43 9 -38 14 5 15 1 9 -28 -15 -68 -34 -82 -74 -58 -17
11 -16 15 16 76 18 36 33 71 33 79 0 8 3 14 6 14 4 0 4 -20 1 -45z m368 -84
c68 -71 84 -92 50 -64 -68 55 -175 168 -175 184 0 10 3 10 13 -1 7 -8 58 -62
112 -119z m-338 72 c-3 -10 -5 -2 -5 17 0 19 2 27 5 18 2 -10 2 -26 0 -35z
m3103 -17 c0 -58 -29 -184 -67 -299 -30 -87 -42 -95 -23 -15 18 73 18 186 0
226 -12 26 -20 32 -37 29 -19 -3 -21 -1 -12 15 6 10 29 39 52 63 33 34 48 43
65 38 19 -5 22 -12 22 -57z m-2552 -182 c-7 -7 -67 56 -68 71 0 5 17 -7 37
-27 20 -21 34 -40 31 -44z m-630 26 c-12 -16 -30 -30 -40 -30 -35 0 -13 34 22
35 8 0 14 6 13 13 -2 6 4 12 12 12 13 0 11 -6 -7 -30z m550 -104 c49 -25 140
-111 130 -122 -9 -8 -82 43 -144 100 -56 52 -53 56 14 22z m2420 -158 c21 -21
13 -59 -28 -133 -22 -40 -40 -76 -40 -81 0 -5 -91 -102 -202 -215 -132 -134
-219 -215 -247 -229 -24 -12 -85 -29 -135 -37 -50 -8 -110 -23 -134 -33 -36
-16 -168 -40 -219 -40 -6 0 -37 -22 -68 -49 -57 -50 -55 -49 -193 -67 l-53 -6
7 38 c10 57 20 71 59 84 19 6 35 16 35 21 0 16 -27 21 -48 10 -16 -9 -21 -7
-25 8 -6 23 2 35 28 46 17 8 14 10 -17 13 -24 2 -35 7 -32 15 3 9 -16 16 -58
24 -35 6 -84 20 -109 32 l-46 22 -22 102 c-12 56 -24 110 -26 120 -4 21 11 22
48 2 16 -8 76 -24 133 -35 119 -23 125 -23 104 -10 -13 8 -12 10 3 10 9 0 17
-5 17 -11 0 -6 9 -8 21 -4 15 5 19 4 15 -4 -5 -7 5 -11 29 -11 22 0 34 4 30
10 -4 6 8 11 27 11 18 1 0 5 -40 10 -83 10 -369 82 -384 97 -5 5 16 4 49 -4
32 -8 67 -14 78 -14 27 0 8 16 -35 28 -107 32 -115 37 -118 80 l-3 40 43 -4
c39 -4 39 -1 -1 12 -10 3 -4 11 19 25 32 20 39 20 179 9 80 -6 171 -16 201
-22 101 -19 115 -21 107 -12 -5 5 -13 10 -18 10 -33 5 -26 8 36 14 48 5 72 4
77 -4 5 -7 8 -7 8 3 0 9 4 10 13 4 22 -18 58 -22 63 -8 4 9 33 13 98 14 89 2
94 1 110 -23 22 -35 20 -48 -12 -79 -31 -29 -88 -42 -100 -22 -9 16 -102 30
-102 16 0 -6 10 -11 23 -11 70 0 25 -38 -49 -42 l-59 -3 74 -14 c41 -7 96 -11
123 -8 53 7 62 2 22 -13 -14 -6 -23 -14 -19 -19 3 -5 0 -13 -7 -18 -8 -5 1
-10 27 -13 24 -3 39 -10 37 -18 -10 -53 329 68 418 149 29 26 31 31 13 26 -32
-7 -29 4 16 60 95 120 218 192 259 151z m-718 -81 c0 -9 -16 -14 -50 -16 -58
-2 -64 4 -17 18 47 13 67 13 67 -2z m-1020 -32 c19 -10 27 -20 24 -30 -4 -8
-1 -15 4 -15 6 0 12 8 14 18 3 16 4 16 10 0 10 -24 -21 -39 -58 -29 -23 6 -30
14 -32 39 -4 37 -2 37 38 17z m23 -206 c18 -8 27 -22 31 -48 3 -21 20 -57 37
-80 17 -24 28 -45 25 -49 -3 -3 -1 -11 5 -19 16 -18 6 -16 -35 7 -32 20 -66
74 -86 140 -4 14 -11 33 -15 43 -8 20 4 22 38 6z m93 -101 c24 -48 20 -63 -8
-30 -21 23 -34 51 -42 87 -6 29 -6 29 10 10 8 -11 27 -41 40 -67z m-226 -465
c-1 -39 -10 -33 -24 15 -6 16 -3 22 8 22 12 0 16 -10 16 -37z m470 27 c13 -8
13 -10 -2 -10 -9 0 -20 5 -23 10 -8 13 5 13 25 0z m33 -5 c-3 -9 -8 -14 -10
-11 -3 3 -2 9 2 15 9 16 15 13 8 -4z m157 -115 c0 -5 -2 -10 -4 -10 -3 0 -8 5
-11 10 -3 6 -1 10 4 10 6 0 11 -4 11 -10z m129 -93 c-7 -27 -13 -34 -22 -27
-7 6 -21 17 -32 25 l-20 14 20 1 c11 0 29 7 39 15 26 19 27 16 15 -28z m351
-45 c0 -10 -44 -32 -62 -32 -6 0 -3 9 7 20 18 20 55 28 55 12z m-355 -52 c7
-12 -19 -12 -55 0 -22 7 -21 8 12 9 20 1 40 -3 43 -9z m313 -48 c7 -5 11 -23
10 -40 -2 -28 -6 -32 -30 -32 -25 0 -28 3 -28 34 0 30 9 42 30 45 3 0 11 -3
18 -7z m-973 -83 c-38 -38 -38 -40 -12 -30 15 6 57 13 93 16 35 4 83 13 106
21 52 18 53 18 55 -6 2 -18 -5 -20 -50 -21 -72 0 -140 -27 -147 -59 -4 -17
-18 -29 -44 -39 -37 -14 -40 -14 -58 9 -25 31 -16 55 37 108 56 54 72 55 20 1z
m291 -16 c-5 -12 -10 -13 -18 -5 -8 8 -8 15 3 28 15 18 25 4 15 -23z m-444
-45 c-9 -9 -15 -9 -24 0 -9 9 -7 12 12 12 19 0 21 -3 12 -12z m1398 -22 c0 -2
-8 -10 -17 -17 -16 -13 -17 -12 -4 4 13 16 21 21 21 13z m-40 -21 c0 -9 -99
-55 -119 -55 -11 0 -22 -4 -26 -10 -3 -5 -13 -6 -21 -3 -10 4 15 18 68 38 89
35 98 38 98 30z m-183 -21 c-3 -3 -12 -4 -19 -1 -8 3 -5 6 6 6 11 1 17 -2 13
-5z m135 -55 c-18 -16 -38 -27 -44 -23 -6 4 6 17 28 30 52 32 56 30 16 -7z
m173 1 c-3 -5 -13 -10 -21 -10 -8 0 -12 5 -9 10 3 6 13 10 21 10 8 0 12 -4 9
-10z m-55 -70 c-14 -25 -28 -33 -47 -26 -13 5 -11 11 13 31 31 27 50 24 34 -5z"/>
<path d="M6200 4750 c0 -5 5 -10 11 -10 5 0 7 5 4 10 -3 6 -8 10 -11 10 -2 0
-4 -4 -4 -10z"/>
<path d="M5198 1873 c-9 -2 -15 -10 -12 -18 4 -8 -3 -15 -18 -17 -13 -3 4 -4
37 -4 33 1 114 -3 180 -7 83 -6 115 -5 105 2 -8 6 -35 11 -60 11 -25 0 -82 9
-128 20 -46 11 -84 19 -85 19 -1 -1 -10 -3 -19 -6z"/>
<path d="M7538 6625 c-4 -22 -7 -56 -7 -75 l1 -35 9 33 c6 19 9 53 7 75 l-3
42 -7 -40z"/>
<path d="M2720 6480 c-9 -6 -10 -10 -3 -10 6 0 15 5 18 10 8 12 4 12 -15 0z"/>
<path d="M3180 5881 c5 -11 15 -23 21 -27 6 -3 3 5 -6 20 -20 30 -30 35 -15 7z"/>
<path d="M3220 5826 c0 -2 8 -10 18 -17 15 -13 16 -12 3 4 -13 16 -21 21 -21
13z"/>
<path d="M3265 5770 c10 -11 20 -20 23 -20 3 0 -3 9 -13 20 -10 11 -20 20 -23
20 -3 0 3 -9 13 -20z"/>
<path d="M3315 5710 c10 -11 20 -20 23 -20 3 0 -3 9 -13 20 -10 11 -20 20 -23
20 -3 0 3 -9 13 -20z"/>
<path d="M6010 5410 c0 -5 5 -10 11 -10 5 0 7 5 4 10 -3 6 -8 10 -11 10 -2 0
-4 -4 -4 -10z"/>
<path d="M8785 5242 c-53 -71 -147 -214 -136 -207 16 9 127 159 147 198 20 38
14 42 -11 9z"/>
<path d="M4400 5136 c0 -9 5 -16 10 -16 6 0 10 4 10 9 0 6 -4 13 -10 16 -5 3
-10 -1 -10 -9z"/>
<path d="M4446 4890 c8 -43 14 -51 14 -19 0 13 -5 31 -10 39 -7 11 -8 5 -4
-20z"/>
<path d="M4963 4891 c-13 -21 -8 -32 13 -24 14 5 20 43 6 43 -4 0 -13 -9 -19
-19z"/>
<path d="M4643 4638 c13 -75 30 -138 39 -138 11 0 7 89 -4 96 -4 3 -8 21 -8
40 0 25 -4 34 -16 34 -13 0 -15 -7 -11 -32z"/>
<path d="M4921 4624 c0 -11 3 -14 6 -6 3 7 2 16 -1 19 -3 4 -6 -2 -5 -13z"/>
<path d="M7500 4170 c-14 -11 -21 -20 -17 -20 5 0 20 9 34 20 14 11 22 20 17
20 -5 0 -20 -9 -34 -20z"/>
<path d="M4330 4085 c13 -14 26 -25 28 -25 3 0 -5 11 -18 25 -13 14 -26 25
-28 25 -3 0 5 -11 18 -25z"/>
<path d="M4385 4020 c10 -11 20 -20 23 -20 3 0 -3 9 -13 20 -10 11 -20 20 -23
20 -3 0 3 -9 13 -20z"/>
<path d="M4420 3984 c0 -5 42 -50 93 -99 l92 -90 -90 95 c-49 52 -91 96 -92
99 -2 2 -3 0 -3 -5z"/>
<path d="M2705 3886 c-9 -32 -13 -65 -10 -74 5 -11 12 7 20 53 7 39 11 72 9
74 -1 2 -10 -22 -19 -53z"/>
<path d="M2732 3800 c0 -14 2 -19 5 -12 2 6 2 18 0 25 -3 6 -5 1 -5 -13z"/>
<path d="M4640 3766 c0 -2 8 -10 18 -17 15 -13 16 -12 3 4 -13 16 -21 21 -21
13z"/>
<path d="M3775 3207 c31 -22 95 -50 101 -44 7 6 -57 40 -96 52 -24 7 -24 6 -5
-8z"/>
<path d="M4240 2926 c0 -2 7 -7 16 -10 8 -3 12 -2 9 4 -6 10 -25 14 -25 6z"/>
<path d="M7285 2818 c4 -18 11 -69 15 -113 7 -76 8 -74 14 20 3 47 -14 125
-27 125 -6 0 -6 -14 -2 -32z"/>
<path d="M7241 2393 c-1 -6 -4 -20 -7 -30 -5 -17 -5 -17 6 0 6 10 9 23 6 30
-3 9 -5 9 -5 0z"/>
<path d="M7310 1469 c0 -5 5 -7 10 -4 6 3 10 8 10 11 0 2 -4 4 -10 4 -5 0 -10
-5 -10 -11z"/>
<path d="M6545 1400 c-3 -5 1 -10 9 -10 9 0 16 5 16 10 0 6 -4 10 -9 10 -6 0
-13 -4 -16 -10z"/>
<path d="M6284 1224 c-18 -14 -18 -15 4 -4 12 6 22 13 22 15 0 8 -5 6 -26 -11z"/>
<path d="M7016 1103 l-99 -108 92 90 c79 77 121 125 109 125 -2 0 -48 -48
-102 -107z"/>
<path d="M6894 1059 c-16 -17 -54 -48 -84 -69 -66 -45 -159 -129 -144 -130 6
0 37 20 70 45 32 25 82 63 110 84 47 36 91 88 82 97 -3 2 -18 -10 -34 -27z"/>
<path d="M1760 950 c0 -6 6 -23 14 -38 19 -37 50 -178 80 -362 15 -85 30 -168
35 -185 19 -63 11 19 -19 190 -16 93 -28 171 -26 173 4 3 46 -84 46 -94 0 -1
21 -47 46 -101 25 -54 57 -123 71 -153 13 -30 29 -62 34 -70 5 -8 30 -55 55
-105 65 -128 116 -205 136 -205 13 0 2 25 -46 108 -91 156 -176 330 -232 470
-27 68 -50 119 -52 114 -2 -6 4 -27 13 -48 8 -20 13 -39 11 -42 -5 -4 -10 7
-72 155 -33 79 -48 142 -23 100 6 -9 15 -15 20 -11 12 7 -8 34 -25 34 -7 0
-22 18 -35 40 -23 41 -31 49 -31 30z"/>
<path d="M6829 923 l-34 -38 38 34 c34 33 42 41 34 41 -2 0 -19 -17 -38 -37z"/>
<path d="M4385 679 c-10 -30 0 -33 13 -4 6 14 7 25 2 25 -5 0 -12 -9 -15 -21z"/>
<path d="M5055 612 c-44 -14 -47 -17 -22 -20 16 -2 25 -8 21 -14 -4 -6 -7 -26
-8 -44 -1 -26 2 -30 12 -21 8 6 12 21 9 34 -6 31 7 38 29 16 15 -15 17 -15 12
-2 -8 20 45 53 71 44 11 -3 22 -2 25 3 3 5 -11 12 -32 16 -49 8 -58 7 -117
-12z"/>
<path d="M3870 617 c0 -3 24 -31 54 -63 30 -33 53 -60 51 -62 -1 -2 -25 10
-52 27 -66 40 -233 77 -233 51 0 -5 13 -10 30 -10 65 0 247 -79 319 -138 l33
-28 -47 -90 c-26 -50 -48 -102 -48 -116 -1 -15 -6 -26 -10 -25 -10 2 -34 -64
-42 -117 l-6 -41 20 35 c11 19 20 32 21 27 0 -10 73 28 89 47 9 11 11 31 6 66
-6 41 -4 50 8 50 15 0 23 -22 48 -139 5 -24 14 -50 20 -57 9 -11 6 -14 -14
-14 -14 0 -29 -5 -32 -10 -5 -8 73 -10 249 -9 250 2 255 2 234 20 -11 11 -17
19 -13 19 18 0 75 -24 75 -32 0 -4 34 -8 75 -8 48 0 75 4 75 11 0 7 9 9 24 5
13 -3 45 1 72 9 27 8 59 15 72 15 34 0 26 15 -15 27 l-38 10 33 2 c17 0 32 5
32 10 0 13 -53 21 -65 10 -5 -5 -16 -9 -24 -9 -9 0 1 11 20 24 34 23 41 24
100 16 46 -7 65 -6 71 3 5 8 13 5 26 -11 19 -22 19 -22 37 -2 10 11 31 20 47
20 60 0 18 -41 -73 -72 -35 -12 -58 -23 -52 -25 19 -7 164 58 156 70 -4 6 0 8
10 4 9 -3 38 3 64 15 45 19 46 21 23 27 -17 5 -21 9 -12 15 7 4 10 12 7 17 -4
5 26 9 72 9 91 1 119 4 153 18 14 5 29 7 33 5 12 -7 97 7 97 15 0 4 -50 8
-112 9 -81 1 -119 -2 -140 -13 -25 -13 -42 -4 -18 11 6 3 10 15 10 25 0 12 13
26 31 35 38 20 32 29 -12 17 -22 -6 -34 -14 -33 -25 1 -13 -2 -14 -16 -7 -9 5
-19 8 -21 6 -2 -2 -24 -7 -49 -10 -98 -13 -234 -43 -220 -48 10 -3 2 -11 -24
-22 -22 -9 -41 -14 -44 -11 -3 3 0 5 6 5 13 0 -4 39 -23 52 -7 5 -6 14 3 28
17 28 15 32 -9 25 -20 -7 -22 -5 -16 30 5 31 4 35 -8 25 -29 -24 -16 10 15 42
17 16 30 39 30 51 0 16 -3 18 -9 8 -5 -7 -28 -15 -51 -16 -32 -3 -50 -11 -74
-37 -53 -54 -76 -67 -135 -74 -31 -3 -85 -18 -121 -31 -106 -40 -153 -53 -197
-53 -43 0 -57 -13 -27 -24 9 -3 41 -6 72 -6 l57 -1 -34 -15 c-49 -21 -65 -35
-50 -45 9 -5 8 -13 -4 -33 -9 -14 -17 -31 -17 -38 0 -12 -34 -48 -45 -48 -3 0
-5 7 -5 15 0 8 -9 24 -20 35 -14 14 -18 28 -14 45 4 16 2 25 -6 25 -7 0 -10
-7 -5 -17 4 -12 3 -15 -4 -8 -5 6 -11 21 -13 34 -1 13 -10 25 -19 26 -12 2
-14 -4 -11 -29 3 -17 9 -37 15 -44 5 -7 7 -15 4 -18 -18 -19 -57 147 -57 245
0 39 -4 71 -9 71 -4 0 -7 -32 -5 -71 3 -88 -12 -98 -62 -43 -29 33 -34 45 -30
76 2 21 0 40 -5 43 -4 3 -6 12 -3 19 3 8 1 17 -5 21 -7 4 -14 -6 -17 -25 -4
-17 -10 -33 -15 -35 -9 -6 -105 116 -101 128 1 5 -1 6 -6 3 -5 -3 -22 8 -38
25 -27 29 -64 55 -64 46z m1030 -242 c13 -14 21 -27 19 -29 -3 -3 -24 0 -47 6
-41 10 -42 11 -26 29 22 24 26 24 54 -6z m-731 -120 c21 -42 35 -161 20 -170
-10 -7 -79 61 -80 78 -1 21 -6 52 -10 62 -2 6 0 35 5 65 l7 55 19 -25 c10 -14
28 -43 39 -65z m760 56 c11 -7 21 -15 21 -20 0 -4 -27 -20 -61 -37 -34 -16
-73 -39 -87 -52 -29 -28 -73 -32 -120 -13 -32 13 -44 41 -18 41 7 0 19 7 26
15 7 8 20 15 30 15 19 0 130 47 130 54 0 3 -21 -2 -47 -10 -93 -30 -90 -29
-74 -11 7 9 10 17 5 17 -5 0 -2 5 6 11 19 13 160 5 189 -10z m-850 -17 c3 -16
1 -17 -13 -5 -19 16 -21 34 -3 29 6 -3 14 -13 16 -24z m594 -2 c-17 -9 -53
-30 -80 -45 l-48 -28 26 26 c30 31 87 62 114 63 15 1 12 -3 -12 -16z m688 -28
c0 -4 -22 -14 -48 -21 -81 -22 -113 -26 -113 -15 0 6 16 14 35 18 19 3 35 10
35 15 0 4 19 9 43 11 47 3 49 3 48 -8z m-681 -2 c0 -5 -11 -14 -25 -20 -14 -6
-25 -19 -25 -27 0 -9 -14 -21 -32 -27 -28 -10 -29 -12 -14 -24 10 -7 40 -15
67 -19 l49 -7 -42 -28 c-24 -15 -58 -31 -75 -35 -29 -6 -32 -4 -26 11 6 15 1
16 -43 11 -28 -4 -54 -14 -61 -24 -16 -21 -8 -30 11 -14 10 8 16 9 21 1 3 -5
-2 -13 -12 -16 -10 -3 -29 -10 -42 -15 -13 -5 -26 -8 -28 -5 -8 8 59 86 74 86
7 0 16 8 20 18 8 23 57 69 117 109 49 33 66 40 66 25z m264 -43 c-36 -40 -46
-17 -12 27 19 24 23 26 26 10 2 -9 -4 -26 -14 -37z m501 11 c3 -5 -1 -10 -9
-10 -9 0 -16 5 -16 10 0 6 4 10 9 10 6 0 13 -4 16 -10z m-561 -30 c-15 -15
-79 -26 -70 -12 4 7 18 12 31 12 13 0 27 5 30 11 4 6 10 8 13 4 3 -3 1 -10 -4
-15z m260 14 c24 -9 9 -24 -25 -24 -29 0 -40 14 -16 23 18 8 23 8 41 1z m126
-53 c0 -6 -10 -17 -22 -25 -17 -12 -24 -13 -30 -3 -15 23 -13 25 45 36 4 0 7
-3 7 -8z m-395 -27 c-13 -10 -32 -14 -55 -10 -19 3 -44 6 -55 7 -42 1 15 14
73 16 53 1 55 0 37 -13z m-645 -25 c0 -6 -4 -7 -10 -4 -5 3 -10 11 -10 16 0 6
5 7 10 4 6 -3 10 -11 10 -16z m-240 8 c0 -2 -10 -12 -22 -23 l-23 -19 19 23
c18 21 26 27 26 19z m783 -24 c-13 -2 -35 -2 -50 0 -16 2 -5 4 22 4 28 0 40
-2 28 -4z m-98 -32 c-17 -16 -73 -23 -80 -11 -5 9 -1 10 13 6 11 -4 23 -2 27
4 3 5 16 10 28 10 13 0 17 -4 12 -9z m62 3 c-3 -3 -12 -4 -19 -1 -8 3 -5 6 6
6 11 1 17 -2 13 -5z m-232 -44 c-3 -5 -11 -10 -16 -10 -6 0 -7 5 -4 10 3 6 11
10 16 10 6 0 7 -4 4 -10z"/>
<path d="M3945 590 c3 -5 8 -10 11 -10 2 0 4 5 4 10 0 6 -5 10 -11 10 -5 0 -7
-4 -4 -10z"/>
<path d="M4850 539 c0 -6 -8 -8 -20 -4 -22 7 -83 -21 -75 -35 3 -5 12 -7 20
-3 17 6 21 -22 5 -32 -20 -12 -9 -22 24 -21 19 1 43 9 53 17 10 9 26 19 36 22
17 6 16 9 -4 37 -23 31 -39 39 -39 19z"/>
<path d="M3748 434 c-19 -14 -53 -50 -73 -80 -21 -30 -40 -54 -44 -54 -4 0
-12 14 -18 30 -15 40 -38 40 -29 0 l6 -30 -30 15 c-43 22 -47 18 -16 -14 16
-17 26 -36 23 -44 -3 -8 -1 -20 3 -27 5 -9 1 -23 -11 -38 -24 -32 -24 -73 1
-122 11 -22 20 -46 20 -55 0 -11 12 -15 51 -15 l51 0 -48 32 c-29 19 -57 48
-67 70 -16 34 -17 39 -3 66 8 16 22 32 31 36 13 4 13 9 3 25 -16 26 1 47 46
55 26 5 41 19 74 69 23 34 49 72 58 85 21 28 17 28 -28 -4z"/>
<path d="M6270 430 c-8 -5 -10 -10 -5 -10 6 0 17 5 25 10 8 5 11 10 5 10 -5 0
-17 -5 -25 -10z"/>
<path d="M6225 410 c-3 -6 1 -7 9 -4 18 7 21 14 7 14 -6 0 -13 -4 -16 -10z"/>
<path d="M4798 403 c7 -3 16 -2 19 1 4 3 -2 6 -13 5 -11 0 -14 -3 -6 -6z"/>
<path d="M5545 390 c-18 -8 -18 -9 5 -9 14 0 32 4 40 9 12 8 12 10 -5 9 -11 0
-29 -4 -40 -9z"/>
<path d="M5915 390 c-3 -5 -2 -10 4 -10 5 0 13 5 16 10 3 6 2 10 -4 10 -5 0
-13 -4 -16 -10z"/>
<path d="M6133 371 c-72 -31 -85 -41 -57 -41 11 0 25 5 31 11 6 6 33 21 59 34
69 33 42 30 -33 -4z"/>
<path d="M3326 368 c-18 -26 -21 -48 -6 -48 6 0 10 1 10 3 0 1 4 17 9 35 11
38 8 40 -13 10z"/>
<path d="M1987 339 c12 -12 25 -20 28 -17 3 3 -7 13 -22 23 l-28 17 22 -23z"/>
<path d="M5365 348 c-19 -11 -36 -30 -32 -35 7 -6 91 25 95 35 5 15 -37 15
-63 0z"/>
<path d="M3260 329 c0 -5 5 -7 10 -4 6 3 10 8 10 11 0 2 -4 4 -10 4 -5 0 -10
-5 -10 -11z"/>
<path d="M5875 280 c-18 -8 -18 -9 5 -9 14 0 34 4 45 9 18 8 18 9 -5 9 -14 0
-34 -4 -45 -9z"/>
<path d="M3298 274 c-5 -4 -8 -25 -8 -46 0 -21 -2 -38 -5 -38 -25 0 -87 39
-92 58 -7 28 -18 28 -37 1 -8 -12 -19 -18 -25 -14 -6 3 -11 -1 -11 -9 0 -21
-44 -42 -104 -50 -62 -8 -92 -41 -43 -48 13 -2 21 -9 19 -19 -1 -8 9 -21 22
-28 20 -11 31 -10 72 8 27 12 60 30 74 39 14 9 49 24 78 33 l52 17 0 -27 c0
-14 13 -54 30 -89 23 -48 34 -62 51 -62 21 0 21 1 5 19 -28 30 -58 121 -65
194 -3 38 -9 65 -13 61z"/>
<path d="M5668 238 c9 -9 15 -9 24 0 9 9 7 12 -12 12 -19 0 -21 -3 -12 -12z"/>
<path d="M2460 238 c0 -3 19 -41 42 -84 29 -54 38 -79 29 -82 -8 -3 2 -17 25
-38 35 -32 59 -40 37 -12 -6 7 -14 23 -18 36 -7 23 -115 192 -115 180z"/>
<path d="M2030 140 c6 -11 14 -20 19 -20 4 0 16 -15 26 -34 24 -44 80 -88 107
-84 21 3 20 5 -13 42 -38 44 -126 116 -140 116 -6 0 -5 -8 1 -20z"/>
<path d="M911 53 c0 -23 4 -45 9 -48 11 -7 11 16 0 60 -7 28 -8 28 -9 -12z"/>
<path d="M3971 36 c-7 -9 -10 -16 -5 -16 5 0 2 -5 -6 -10 -11 -7 -5 -10 23
-10 20 0 37 4 37 9 0 5 3 16 6 25 3 9 2 16 -4 16 -5 0 -13 -10 -17 -22 l-7
-23 -7 24 c-6 21 -8 22 -20 7z"/>
<path d="M5008 33 c7 -3 16 -2 19 1 4 3 -2 6 -13 5 -11 0 -14 -3 -6 -6z"/>
<path d="M3300 26 c0 -2 8 -10 18 -17 15 -13 16 -12 3 4 -13 16 -21 21 -21 13z"/>
<path d="M4948 13 c7 -3 16 -2 19 1 4 3 -2 6 -13 5 -11 0 -14 -3 -6 -6z"/>
<path d="M5025 10 c-30 -8 -30 -8 8 -9 20 0 37 4 37 9 0 11 -2 11 -45 0z"/>
</g>
</svg>
