<svg width="2624" height="1074" viewBox="0 0 2624 1074" fill="none" xmlns="http://www.w3.org/2000/svg">
<path d="M1107 865H47H11L1 1H2623L2607 851H1837V757L1809 735L1693 685L1539 675L1295 685L1191 735V851L1145 837L1107 865Z" fill="black"/>
<path d="M1127 1011L1165 1073H1219L1201 999V937L1165 889L1127 937V1011Z" fill="black"/>
<path d="M1107 865H47H11L1 1H2623L2607 851H1837V757L1809 735L1693 685L1539 675L1295 685L1191 735V851L1145 837L1107 865Z" stroke="black"/>
<path d="M1127 1011L1165 1073H1219L1201 999V937L1165 889L1127 937V1011Z" stroke="black"/>
</svg>
