<svg width="2594" height="1085" viewBox="0 0 2594 1085" fill="none" xmlns="http://www.w3.org/2000/svg">
<path d="M1103 1084H16L1 0.5L2593.5 10V1084H1766.5L1785 1021L1807.5 865V736.5L1794.5 714.5L1755.5 694L1644 675L1528.5 662H1370.5L1270.5 675L1196 694L1173.5 714.5V824H1151.5H1103L1054.5 865L1028.5 941L1103 1084Z" fill="black"/>
<path d="M1103 991L1173.5 1084L1196 1052.5L1173.5 1002.5V909.5L1140 865L1103 909.5V991Z" fill="black"/>
<path d="M1103 1084H16L1 0.5L2593.5 10V1084H1766.5L1785 1021L1807.5 865V736.5L1794.5 714.5L1755.5 694L1644 675L1528.5 662H1370.5L1270.5 675L1196 694L1173.5 714.5V824H1151.5H1103L1054.5 865L1028.5 941L1103 1084Z" stroke="black"/>
<path d="M1103 991L1173.5 1084L1196 1052.5L1173.5 1002.5V909.5L1140 865L1103 909.5V991Z" stroke="black"/>
</svg>
